<svg xmlns="http://www.w3.org/2000/svg" xmlns:xlink="http://www.w3.org/1999/xlink" width="1656" height="757" viewBox="0 0 1656 757">
  <defs>
    <style>
      .cls-1 {
        clip-path: url(#clip-ss);
      }

      .cls-13, .cls-14, .cls-2 {
        fill: #ff9336;
      }

      .cls-2 {
        stroke: #8e2e2e;
      }

      .cls-2, .cls-4, .cls-6 {
        stroke-width: 3px;
      }

      .cls-12, .cls-16, .cls-21, .cls-3, .cls-5, .cls-8 {
        fill: #fff;
      }

      .cls-3 {
        font-size: 30px;
      }

      .cls-10, .cls-14, .cls-18, .cls-3, .cls-5 {
        font-family: HiraKakuStdN-W8, Hiragino Kaku Gothic StdN;
      }

      .cls-17, .cls-18, .cls-4 {
        fill: #36c9ff;
      }

      .cls-4 {
        stroke: #423cd0;
      }

      .cls-5 {
        font-size: 25px;
      }

      .cls-10, .cls-6, .cls-9 {
        fill: #b236ff;
      }

      .cls-6 {
        stroke: #583ee0;
      }

      .cls-11, .cls-15, .cls-20, .cls-7 {
        fill: none;
      }

      .cls-7, .cls-8, .cls-9 {
        stroke: #b236ff;
      }

      .cls-11, .cls-15, .cls-7 {
        stroke-width: 4px;
      }

      .cls-10, .cls-14, .cls-18 {
        font-size: 28px;
      }

      .cls-11, .cls-12, .cls-13 {
        stroke: #ff9336;
      }

      .cls-15, .cls-16, .cls-17 {
        stroke: #36c9ff;
      }

      .cls-19 {
        stroke: none;
      }
    </style>
    <clipPath id="clip-ss">
      <rect width="1656" height="757"/>
    </clipPath>
  </defs>
  <g id="ss" class="cls-1">
    <rect class="cls-21" width="1656" height="757"/>
    <g id="Tile" transform="translate(135 75)">
      <g id="Rectangle_1" data-name="Rectangle 1" class="cls-2">
        <rect class="cls-19" width="413" height="100" rx="8"/>
        <rect class="cls-20" x="1.5" y="1.5" width="410" height="97" rx="6.5"/>
      </g>
      <text id="Web_Development" data-name="Web Development" class="cls-3" transform="translate(207 60)"><tspan x="-159.525" y="0">Web Development</tspan></text>
    </g>
    <g id="Tile-2" data-name="Tile" transform="translate(628 75)">
      <g id="Rectangle_1-2" data-name="Rectangle 1" class="cls-4">
        <rect class="cls-19" width="413" height="100" rx="8"/>
        <rect class="cls-20" x="1.5" y="1.5" width="410" height="97" rx="6.5"/>
      </g>
      <text id="Mobile_App_Development" data-name="Mobile 
App Development" class="cls-5" transform="translate(207 35)"><tspan x="-52.025" y="0">Mobile </tspan><tspan x="-131.05" y="43">App Development</tspan></text>
    </g>
    <g id="Tile-3" data-name="Tile" transform="translate(1121 75)">
      <g id="Rectangle_1-3" data-name="Rectangle 1" class="cls-6">
        <rect class="cls-19" width="413" height="100" rx="8"/>
        <rect class="cls-20" x="1.5" y="1.5" width="410" height="97" rx="6.5"/>
      </g>
      <text id="DevOps" class="cls-3" transform="translate(138 60)"><tspan x="0" y="0">DevOps</tspan></text>
    </g>
    <g id="DevOps_item" data-name="DevOps item" transform="translate(1160.727 167.242)">
      <g id="Connector">
        <line id="Line_1" data-name="Line 1" class="cls-7" y2="570.258" transform="translate(9.5)"/>
        <g id="Ellipse_2" data-name="Ellipse 2" class="cls-8" transform="translate(-1.727 47.758)">
          <circle class="cls-19" cx="11" cy="11" r="11"/>
          <circle class="cls-20" cx="11" cy="11" r="10.5"/>
        </g>
        <g id="Ellipse_3" data-name="Ellipse 3" class="cls-8" transform="translate(-1.727 116.758)">
          <circle class="cls-19" cx="11" cy="11" r="11"/>
          <circle class="cls-20" cx="11" cy="11" r="10.5"/>
        </g>
        <g id="Ellipse_4" data-name="Ellipse 4" class="cls-8" transform="translate(-1.727 182.758)">
          <circle class="cls-19" cx="11" cy="11" r="11"/>
          <circle class="cls-20" cx="11" cy="11" r="10.5"/>
        </g>
        <g id="Ellipse_5" data-name="Ellipse 5" class="cls-8" transform="translate(-1.727 251.758)">
          <circle class="cls-19" cx="11" cy="11" r="11"/>
          <circle class="cls-20" cx="11" cy="11" r="10.5"/>
        </g>
        <g id="Ellipse_6" data-name="Ellipse 6" class="cls-8" transform="translate(-1.727 320.758)">
          <circle class="cls-19" cx="11" cy="11" r="11"/>
          <circle class="cls-20" cx="11" cy="11" r="10.5"/>
        </g>
        <g id="Ellipse_7" data-name="Ellipse 7" class="cls-8" transform="translate(-1.727 391.758)">
          <circle class="cls-19" cx="11" cy="11" r="11"/>
          <circle class="cls-20" cx="11" cy="11" r="10.5"/>
        </g>
        <g id="Ellipse_8" data-name="Ellipse 8" class="cls-8" transform="translate(-1.727 459.758)">
          <circle class="cls-19" cx="11" cy="11" r="11"/>
          <circle class="cls-20" cx="11" cy="11" r="10.5"/>
        </g>
        <g id="Ellipse_11" data-name="Ellipse 11" class="cls-9" transform="translate(-1.727 561.758)">
          <circle class="cls-19" cx="11" cy="11" r="11"/>
          <circle class="cls-20" cx="11" cy="11" r="10.5"/>
        </g>
      </g>
      <text id="Ansible" class="cls-10" transform="translate(38.273 68.758)"><tspan x="0" y="0">Ansible</tspan></text>
      <text id="Chef" class="cls-10" transform="translate(38.273 136.758)"><tspan x="0" y="0">Chef</tspan></text>
      <text id="Terraform" class="cls-10" transform="translate(38.273 204.758)"><tspan x="0" y="0">Terraform</tspan></text>
      <text id="Cloudformation" class="cls-10" transform="translate(38.273 272.758)"><tspan x="0" y="0">Cloudformation</tspan></text>
      <text id="Docker" class="cls-10" transform="translate(38.273 340.758)"><tspan x="0" y="0">Docker</tspan></text>
      <text id="Kubernetes" class="cls-10" transform="translate(38.273 410.758)"><tspan x="0" y="0">Kubernetes</tspan></text>
      <text id="Helm" class="cls-10" transform="translate(38.273 478.758)"><tspan x="0" y="0">Helm</tspan></text>
    </g>
    <g id="DevOps_item-2" data-name="DevOps item" transform="translate(164 174.242)">
      <g id="Connector-2" data-name="Connector">
        <line id="Line_1-2" data-name="Line 1" class="cls-11" y2="478.258" transform="translate(9.5)"/>
        <g id="Ellipse_2-2" data-name="Ellipse 2" class="cls-12" transform="translate(-1 47.758)">
          <circle class="cls-19" cx="11" cy="11" r="11"/>
          <circle class="cls-20" cx="11" cy="11" r="10.5"/>
        </g>
        <g id="Ellipse_3-2" data-name="Ellipse 3" class="cls-12" transform="translate(-1 114.758)">
          <circle class="cls-19" cx="11" cy="11" r="11"/>
          <circle class="cls-20" cx="11" cy="11" r="10.5"/>
        </g>
        <g id="Ellipse_4-2" data-name="Ellipse 4" class="cls-12" transform="translate(-1 181.758)">
          <circle class="cls-19" cx="11" cy="11" r="11"/>
          <circle class="cls-20" cx="11" cy="11" r="10.5"/>
        </g>
        <g id="Ellipse_5-2" data-name="Ellipse 5" class="cls-12" transform="translate(-1 252.758)">
          <circle class="cls-19" cx="11" cy="11" r="11"/>
          <circle class="cls-20" cx="11" cy="11" r="10.5"/>
        </g>
        <g id="Ellipse_6-2" data-name="Ellipse 6" class="cls-12" transform="translate(-1 322.758)">
          <circle class="cls-19" cx="11" cy="11" r="11"/>
          <circle class="cls-20" cx="11" cy="11" r="10.5"/>
        </g>
        <g id="Ellipse_7-2" data-name="Ellipse 7" class="cls-12" transform="translate(-1 391.758)">
          <circle class="cls-19" cx="11" cy="11" r="11"/>
          <circle class="cls-20" cx="11" cy="11" r="10.5"/>
        </g>
        <g id="Ellipse_9" data-name="Ellipse 9" class="cls-13" transform="translate(-1 471.758)">
          <circle class="cls-19" cx="11" cy="11" r="11"/>
          <circle class="cls-20" cx="11" cy="11" r="10.5"/>
        </g>
      </g>
      <text id="Python_Stack" data-name="Python Stack" class="cls-14" transform="translate(32 67.758)"><tspan x="0" y="0">Python Stack</tspan></text>
      <text id="Go_Stack" data-name="Go Stack" class="cls-14" transform="translate(32 138.758)"><tspan x="0" y="0">Go Stack</tspan></text>
      <text id="Node_Stack" data-name="Node Stack" class="cls-14" transform="translate(32 206.758)"><tspan x="0" y="0">Node Stack</tspan></text>
      <text id="React" class="cls-14" transform="translate(32 274.758)"><tspan x="0" y="0">React</tspan></text>
      <text id="Angular" class="cls-14" transform="translate(32 342.758)"><tspan x="0" y="0">Angular</tspan></text>
      <text id="VueJS" class="cls-14" transform="translate(32 413.758)"><tspan x="0" y="0">VueJS</tspan></text>
    </g>
    <g id="DevOps_item-3" data-name="DevOps item" transform="translate(658.936 173.448)">
      <g id="Connector-3" data-name="Connector">
        <line id="Line_1-3" data-name="Line 1" class="cls-15" x2="1.064" y2="204.052" transform="translate(9.5)"/>
        <g id="Ellipse_2-3" data-name="Ellipse 2" class="cls-16" transform="translate(-0.936 47.552)">
          <circle class="cls-19" cx="11" cy="11" r="11"/>
          <circle class="cls-20" cx="11" cy="11" r="10.5"/>
        </g>
        <g id="Ellipse_3-3" data-name="Ellipse 3" class="cls-16" transform="translate(-0.936 112.552)">
          <circle class="cls-19" cx="11" cy="11" r="11"/>
          <circle class="cls-20" cx="11" cy="11" r="10.5"/>
        </g>
        <g id="Ellipse_10" data-name="Ellipse 10" class="cls-17" transform="translate(0.064 181.552)">
          <circle class="cls-19" cx="11" cy="11" r="11"/>
          <circle class="cls-20" cx="11" cy="11" r="10.5"/>
        </g>
      </g>
      <text id="React_Native" data-name="React Native" class="cls-18" transform="translate(36.064 67.552)"><tspan x="0" y="0">React Native</tspan></text>
      <text id="Flutter" class="cls-18" transform="translate(36.064 135.552)"><tspan x="0" y="0">Flutter</tspan></text>
    </g>
  </g>
</svg>
