<svg xmlns="http://www.w3.org/2000/svg" xmlns:xlink="http://www.w3.org/1999/xlink" viewBox="0 0 244.92 63.85"><defs><style>.cls-1{fill:url(#linear-gradient);}.cls-2{font-size:14.07px;font-family:ProximaSoft-Semibold, Proxima Soft;font-weight:600;letter-spacing:0.06em;}.cls-2,.cls-7{fill:#fff;}.cls-3{letter-spacing:0.05em;}.cls-4{letter-spacing:0.12em;}.cls-5{letter-spacing:0.06em;}.cls-6{letter-spacing:0.03em;}.cls-7{font-size:45.36px;font-family:ProximaSoft-Bold, Proxima Soft;font-weight:700;}.cls-8{letter-spacing:-0.07em;}.cls-9{letter-spacing:-0.01em;}</style><linearGradient id="linear-gradient" x1="7.74" y1="55.99" x2="48.39" y2="7.54" gradientUnits="userSpaceOnUse"><stop offset="0" stop-color="#d73584"/><stop offset="0.11" stop-color="#dc4869"/><stop offset="0.3" stop-color="#e46343"/><stop offset="0.39" stop-color="#e76d34"/></linearGradient></defs><g id="Layer_2" data-name="Layer 2"><g id="Layer_1-2" data-name="Layer 1"><path class="cls-1" d="M15.8,62.56.36,36.38a2.62,2.62,0,0,1,0-2.6L15.71,5.85A2.65,2.65,0,0,1,18,4.5H29.93a2.62,2.62,0,0,1,2.3,3.89L18.37,33.55a2.62,2.62,0,0,0,0,2.6l14,23.74a2.63,2.63,0,0,1-2.26,4H18.06A2.62,2.62,0,0,1,15.8,62.56ZM39.86,6.18,26.12,30.57A3.31,3.31,0,0,0,29,35.5H57.54a3.31,3.31,0,0,0,2.87-4.95L46.47,6.16C45.2,3.93,41.12,3.94,39.86,6.18Z"/><text class="cls-2" transform="translate(73.94 56.67)">THOUGH<tspan class="cls-3" x="64.49" y="0">T</tspan><tspan x="73.39" y="0">S</tspan><tspan class="cls-4" x="82.59" y="0"> </tspan><tspan class="cls-5" x="87.89" y="0">IN</tspan><tspan class="cls-6" x="103.35" y="0">T</tspan><tspan x="111.96" y="0">O</tspan><tspan class="cls-4" x="123.57" y="0"> </tspan><tspan x="128.88" y="0">CODE</tspan></text><text class="cls-7" transform="translate(70.21 37.78)"><tspan class="cls-8">P</tspan><tspan x="24.95" y="0">A</tspan><tspan class="cls-9" x="55.7" y="0">R</tspan><tspan x="84.41" y="0">THA</tspan></text></g></g></svg>